<svg width="35" height="40" viewBox="0 0 35 40" fill="none" xmlns="http://www.w3.org/2000/svg">
<path fill-rule="evenodd" clip-rule="evenodd" d="M29.0908 40H5.45478C2.44266 40 0 37.5573 0 34.5452L0.000634121 5.45478C0.000634121 2.44265 2.44329 0 5.45542 0H29.0914C32.1035 0 34.5462 2.44265 34.5462 5.45478V34.5452C34.5449 37.5573 32.1021 40 29.0908 40ZM32.7267 5.4551C32.7267 3.44686 31.0984 1.81913 29.0908 1.81913H5.45478C3.44654 1.81913 1.8188 3.44751 1.8188 5.4551V34.5455C1.8188 36.5538 3.44719 38.1815 5.45478 38.1815H29.0908C31.099 38.1815 32.7267 36.5531 32.7267 34.5455V5.4551ZM27.2726 36.3637H7.27293C5.26468 36.3637 3.63695 34.7353 3.63695 32.7277V7.27358C3.63695 5.26534 5.26533 3.6376 7.27293 3.6376H27.2726C29.2809 3.6376 30.9086 5.26599 30.9086 7.27358V32.7277C30.9092 34.7353 29.2809 36.3637 27.2731 36.3637H27.2726ZM22.7272 25.909C22.7272 24.6534 21.7101 23.6363 20.4545 23.6363C19.199 23.6363 18.1818 24.6541 18.1818 25.909C18.1818 27.1646 19.199 28.1817 20.4545 28.1817C21.7095 28.1817 22.7272 27.1646 22.7272 25.909ZM19.0906 33.6365C20.0944 33.6365 20.9086 32.8216 20.9086 31.8185C20.9086 30.8147 20.0937 30.0005 19.0906 30.0005C18.0868 30.0005 17.2726 30.8153 17.2726 31.8185C17.2726 32.8217 18.0874 33.6365 19.0906 33.6365ZM19.9999 19.5456C19.9999 17.7885 18.5763 16.3635 16.8178 16.3635C15.0607 16.3635 13.6358 17.7878 13.6358 19.5456C13.6358 21.304 15.06 22.7277 16.8178 22.7277C18.5763 22.7277 19.9999 21.3041 19.9999 19.5456ZM14.0906 32.7271C14.8439 32.7271 15.454 32.1164 15.454 31.3637C15.4546 30.611 14.8446 30.0004 14.0906 30.0004C13.3373 30.0004 12.7273 30.611 12.7273 31.3637C12.7273 32.1164 13.3373 32.7271 14.0906 32.7271ZM13.1819 28.1817C14.4375 28.1817 15.4546 27.1646 15.4546 25.909C15.4546 24.6541 14.4375 23.6363 13.1819 23.6363C11.9263 23.6363 10.9092 24.6541 10.9092 25.909C10.9092 27.1646 11.9263 28.1817 13.1819 28.1817ZM5.45444 25.4549C5.45444 26.4588 6.26928 27.2729 7.27243 27.2729C8.27625 27.2729 9.09042 26.4581 9.09042 25.4549C9.09042 24.4511 8.27558 23.637 7.27243 23.637C6.26925 23.6363 5.45444 24.4512 5.45444 25.4549ZM7.72713 12.7276C6.9738 12.7276 6.36378 13.3376 6.36378 14.0909C6.36378 14.8442 6.9738 15.4543 7.72713 15.4543C8.48046 15.4543 9.09049 14.8442 9.09049 14.0909C9.09112 13.3376 8.4811 12.7276 7.72713 12.7276ZM7.27246 19.5456C7.27246 20.8012 8.28959 21.8183 9.54515 21.8183C10.8007 21.8183 11.8178 20.8012 11.8178 19.5456C11.8178 18.2901 10.8007 17.2729 9.54515 17.2729C8.29022 17.2729 7.27246 18.2901 7.27246 19.5456ZM13.1818 10.9096C11.9262 10.9096 10.9091 11.9267 10.9091 13.1823C10.9091 14.4378 11.9262 15.4549 13.1818 15.4549C14.4373 15.4549 15.4545 14.4378 15.4545 13.1823C15.4545 11.9267 14.4373 10.9096 13.1818 10.9096ZM17.2725 6.36418C16.2686 6.36418 15.4545 7.17902 15.4545 8.18217C15.4545 9.18599 16.2693 10.0002 17.2725 10.0002C18.2763 10.0002 19.0905 9.18532 19.0905 8.18217C19.0905 7.17899 18.2762 6.36418 17.2725 6.36418ZM20.4546 10.9096C19.199 10.9096 18.1819 11.9267 18.1819 13.1823C18.1819 14.4378 19.199 15.4549 20.4546 15.4549C21.7101 15.4549 22.7272 14.4378 22.7272 13.1823C22.7272 11.9267 21.7095 10.9096 20.4546 10.9096ZM21.8179 19.5456C21.8179 20.8012 22.835 21.8183 24.0906 21.8183C25.3462 21.8183 26.3633 20.8012 26.3633 19.5456C26.3633 18.2901 25.3462 17.2729 24.0906 17.2729C22.835 17.2729 21.8179 18.2901 21.8179 19.5456ZM26.3633 11.8188C25.3595 11.8188 24.5453 12.6336 24.5453 13.6368C24.5453 14.6406 25.3601 15.4548 26.3633 15.4548C27.3671 15.4548 28.1813 14.6399 28.1813 13.6368C28.1813 12.633 27.3671 11.8188 26.3633 11.8188ZM26.3633 23.6363C25.3595 23.6363 24.5453 24.4511 24.5453 25.4543C24.5453 26.4581 25.3601 27.2723 26.3633 27.2723C27.3671 27.2723 28.1813 26.4574 28.1813 25.4543C28.1813 24.4511 27.3671 23.6363 26.3633 23.6363Z" fill="#FC8211"/>
</svg>
