<svg width="31" height="40" viewBox="0 0 31 40" fill="none" xmlns="http://www.w3.org/2000/svg">
<path fill-rule="evenodd" clip-rule="evenodd" d="M15.3427 0C20.9716 0 25.5546 4.58295 25.5546 10.212C25.5546 15.8906 20.9717 20.4736 15.3427 20.4736C9.66399 20.4736 5.08096 15.8907 5.08096 10.212C5.08096 4.58303 9.66392 0 15.3427 0ZM15.3427 1.14574C20.3241 1.14574 24.4086 5.23045 24.4086 10.2117C24.4086 15.2429 20.3239 19.3275 15.3427 19.3275C10.3115 19.3275 6.22693 15.2427 6.22693 10.2117C6.22693 5.2303 10.3116 1.14574 15.3427 1.14574ZM9.06622 24.3091H21.8685C26.2022 24.3091 29.7885 27.8956 29.7885 32.2291V40H30.9342V32.2291C30.9342 27.2477 26.8495 23.1632 21.8682 23.1632H9.06599C4.08456 23.1632 0 27.2479 0 32.2291V40H1.14574V32.2291C1.14574 27.8954 4.6824 24.3091 9.06577 24.3091H9.06622Z" fill="#FC8211"/>
</svg>
