<svg width="40" height="40" viewBox="0 0 40 40" fill="none" xmlns="http://www.w3.org/2000/svg">
<path d="M39.8044 11.6082L30.4894 2.67392C30.3735 2.56405 30.2197 2.37311 30.0601 2.37311H9.93981C9.78024 2.37311 9.62643 2.56405 9.51043 2.67392L0.195556 11.5432C-0.0381936 11.7642 -0.0659435 12.1592 0.131494 12.4131C0.262744 12.5821 19.3964 37.2416 19.5388 37.4014C19.6027 37.4732 19.689 37.5399 19.7531 37.5677C19.9258 37.643 20.0704 37.6487 20.2469 37.5717C20.3109 37.5439 20.3971 37.4874 20.4611 37.4155C20.4706 37.405 20.4847 37.4015 20.4934 37.3902L39.8684 12.4451C40.0659 12.1912 40.0381 11.8291 39.8044 11.6082ZM9.76706 4.02155L12.8886 11.1231H2.25381L9.76706 4.02155ZM15.0497 11.1231L19.9999 4.08455L24.9502 11.1231H15.0497ZM25.4494 12.3731L19.9999 34.1712L14.5505 12.3731H25.4494ZM21.2036 3.62311H29.0425L26.0275 10.4822L21.2036 3.62311ZM13.9724 10.4822L10.9574 3.62311H18.7964L13.9724 10.4822ZM13.2619 12.3731L18.6742 34.0221L1.85962 12.3731H13.2619ZM26.738 12.3731H38.1403L21.3257 34.0221L26.738 12.3731ZM27.1113 11.1231L30.2329 4.02154L37.7461 11.1231H27.1113Z" fill="#FC8211"/>
</svg>
