<svg width="40" height="40" viewBox="0 0 40 40" fill="none" xmlns="http://www.w3.org/2000/svg">
<g clip-path="url(#clip0_45_4573)">
<path d="M40 20C40 8.95395 31.0453 0 20 0C8.95474 0 0 8.95395 0 20C0 29.9822 7.31405 38.2567 16.8749 39.7569V25.7815H11.7966V20H16.8749V15.5941C16.8749 10.5812 19.8611 7.81281 24.4288 7.81281C26.6172 7.81281 28.9058 8.20739 28.9058 8.20739V13.1287H26.3844C23.8993 13.1287 23.1251 14.6707 23.1251 16.2522V20.0039H28.6714L27.7852 25.7854H23.1228V39.7569C32.686 38.2567 40 29.9822 40 20Z" fill="#90E0EF"/>
</g>
<defs>
<clipPath id="clip0_45_4573">
<rect width="40" height="40" fill="white"/>
</clipPath>
</defs>
</svg>
