<svg width="80" height="80" viewBox="0 0 80 80" fill="none" xmlns="http://www.w3.org/2000/svg">
<circle cx="40" cy="40" r="40" fill="#03045E"/>
<g clip-path="url(#clip0_38_1014)">
<path d="M59.1367 33.4062L62.8281 42.6289C63.0273 43.1445 63.2266 43.6719 63.4023 44.2109C63.5781 44.75 63.7422 45.2539 63.8828 45.6992H63.9414C64.082 45.2656 64.2461 44.7734 64.4219 44.2344C64.5977 43.6953 64.8086 43.1328 65.0313 42.5703L68.4766 33.4062H70L65.793 43.8125C65.3711 44.9141 64.9727 45.9102 64.5977 46.8125C64.2227 47.7031 63.8477 48.5117 63.4609 49.2383C63.0742 49.9531 62.6875 50.5977 62.3008 51.1484C61.9023 51.6992 61.4688 52.1797 60.9883 52.6016C60.4258 53.0938 59.9102 53.457 59.4297 53.6797C58.9609 53.9023 58.6328 54.0547 58.4805 54.1133L58 52.9648C58.3633 52.8125 58.7617 52.6016 59.207 52.3438C59.6523 52.0859 60.0859 51.7578 60.5078 51.3359C60.8711 50.9844 61.2695 50.5156 61.7031 49.9297C62.1367 49.3438 62.5234 48.6406 62.8633 47.8203C62.9805 47.5039 63.0508 47.293 63.0508 47.1992C63.0508 47.0586 62.9922 46.8594 62.8633 46.5781L57.625 33.4062H59.1367Z" fill="#FC8211"/>
<path d="M56.3594 44.2227C56.3594 44.7969 56.3711 45.3711 56.3945 45.9336C56.418 46.5078 56.4766 47.0586 56.5703 47.5859H55.2344L55.0234 45.582H54.9648C54.7891 45.8633 54.5547 46.1328 54.2734 46.4141C53.9922 46.6953 53.6641 46.9414 53.2891 47.1641C52.9141 47.3867 52.4922 47.5742 52.0234 47.7148C51.5547 47.8555 51.0273 47.9258 50.4648 47.9258C49.7617 47.9258 49.1406 47.8086 48.6016 47.5859C48.0625 47.3633 47.6289 47.0586 47.2891 46.6953C46.9492 46.332 46.6914 45.9102 46.5156 45.4414C46.3398 44.9727 46.2578 44.4922 46.2578 44.0234C46.2578 42.3477 46.9844 41.0586 48.4258 40.1563C49.8672 39.2539 52.0352 38.8203 54.9414 38.8555V38.4688C54.9414 38.0938 54.9063 37.6602 54.8359 37.1797C54.7656 36.6992 54.6133 36.2422 54.3672 35.8086C54.1211 35.375 53.7578 35.0117 53.2773 34.7188C52.7969 34.4258 52.1406 34.2734 51.3086 34.2734C50.6875 34.2734 50.0664 34.3672 49.4453 34.5547C48.8359 34.7422 48.2734 35 47.7695 35.3398L47.3125 34.3086C47.957 33.875 48.625 33.5703 49.3047 33.3828C49.9844 33.1953 50.7109 33.1016 51.4492 33.1016C52.457 33.1016 53.2773 33.2656 53.9102 33.6055C54.543 33.9453 55.0469 34.3789 55.4102 34.9063C55.7734 35.4336 56.0195 36.0313 56.1484 36.6992C56.2773 37.3555 56.3477 38.0117 56.3477 38.668L56.3594 44.2227ZM54.9414 39.9922C54.1797 39.9688 53.3711 40.0039 52.5391 40.0859C51.707 40.168 50.9336 40.332 50.2305 40.6016C49.5273 40.8711 48.9414 41.2578 48.4727 41.7734C48.0039 42.2891 47.7812 42.9688 47.7812 43.8125C47.7812 44.8203 48.0742 45.5586 48.6602 46.0273C49.2461 46.4961 49.9023 46.7422 50.6289 46.7422C51.2148 46.7422 51.7422 46.6602 52.1992 46.5078C52.668 46.3555 53.0664 46.1328 53.4062 45.875C53.7461 45.6055 54.0391 45.3125 54.2734 44.9727C54.5078 44.6328 54.6836 44.293 54.8008 43.9414C54.9062 43.543 54.9531 43.2617 54.9531 43.0859L54.9414 39.9922Z" fill="#FC8211"/>
<path d="M33.9531 27.9102C34.5391 27.8164 35.1836 27.7227 35.8867 27.6406C36.5898 27.5586 37.3633 27.5234 38.2188 27.5234C39.4258 27.5234 40.4688 27.6641 41.3477 27.957C42.2266 28.2383 42.9414 28.6484 43.5156 29.1875C43.9961 29.6563 44.3828 30.2187 44.6523 30.875C44.9219 31.5195 45.0625 32.2695 45.0625 33.125C45.0625 34.1445 44.875 35.0469 44.5 35.8086C44.125 36.582 43.6211 37.2266 42.9766 37.7422C42.332 38.2695 41.5703 38.6562 40.6797 38.9141C39.7891 39.1719 38.8281 39.3008 37.7734 39.3008C36.8242 39.3008 36.0273 39.2305 35.3828 39.0898V47.5977H33.9648V27.9102H33.9531ZM35.3711 37.8359C35.7109 37.9297 36.0977 38 36.5195 38.0469C36.9414 38.082 37.3984 38.1055 37.8789 38.1055C39.6953 38.1055 41.1016 37.6953 42.0977 36.8633C43.0938 36.0312 43.5977 34.8242 43.5977 33.2305C43.5977 32.457 43.4687 31.7891 43.1992 31.2266C42.9414 30.6523 42.5664 30.1836 42.0859 29.8203C41.6055 29.457 41.0313 29.1758 40.3633 28.9883C39.6953 28.8008 38.957 28.707 38.1602 28.707C37.5156 28.707 36.9648 28.7305 36.4961 28.7773C36.0273 28.8242 35.6641 28.8828 35.3828 28.9414L35.3711 37.8359Z" fill="#FC8211"/>
<path d="M25.3749 37.6367C25.41 40.9531 28.3749 42.0547 28.41 42.0664C28.3866 42.1484 27.9413 43.6367 26.8514 45.1836C25.9139 46.5195 24.9296 47.8438 23.3944 47.8789C21.8827 47.9023 21.3905 47.0117 19.6678 47.0117C17.9335 47.0117 17.3944 47.8555 15.9647 47.9023C14.4764 47.9609 13.3397 46.4609 12.3905 45.1367C10.4335 42.4063 8.95691 37.4375 10.9491 34.0859C11.9335 32.4219 13.703 31.3789 15.6249 31.3438C17.0897 31.3203 18.4608 32.293 19.3514 32.293C20.2421 32.293 21.9178 31.1211 23.6757 31.2852C24.4139 31.3203 26.4764 31.5781 27.8124 33.4531C27.7069 33.5352 25.3514 34.8594 25.3749 37.6367ZM22.5272 29.4922C23.3124 28.5664 23.8514 27.2773 23.6991 26C22.5624 26.0469 21.1796 26.7383 20.371 27.6641C19.6444 28.4844 18.9999 29.7969 19.1757 31.0508C20.4413 31.1445 21.7421 30.418 22.5272 29.4922Z" fill="#90E0EF"/>
</g>
<defs>
<clipPath id="clip0_38_1014">
<rect width="60" height="28.0898" fill="white" transform="translate(10 26)"/>
</clipPath>
</defs>
</svg>
