<svg width="80" height="80" viewBox="0 0 80 80" fill="none" xmlns="http://www.w3.org/2000/svg">
<circle cx="40" cy="40" r="40" fill="#03045E"/>
<g clip-path="url(#clip0_38_1010)">
<path d="M38.5797 12.0966C37.3865 12.2102 37.0513 12.25 36.4831 12.3466C31.9149 13.1307 28.2615 14.7329 24.9149 17.4261C24.1593 18.0341 22.8127 19.3466 21.9433 20.3238C20.9263 21.4602 19.3638 23.5852 19.0627 24.2216C18.4661 25.5057 19.7786 26.8011 21.0456 26.1818C21.4661 25.9772 21.5854 25.8068 22.2502 24.4943C23.074 22.8522 23.8979 21.6932 25.1422 20.4147C27.4263 18.0625 30.6877 16.1193 33.9433 15.1761C34.9888 14.875 36.2558 14.5795 37.4149 14.375C38.074 14.2613 38.3297 14.2443 39.8297 14.2443C41.6081 14.25 42.2502 14.3011 44.0343 14.5909C46.3411 14.9716 48.6933 15.9716 51.0683 17.5852C53.0172 18.9091 55.1024 20.8238 56.557 22.6307C57.8808 24.2727 59.2274 26.5852 59.5002 27.6818C59.6592 28.3352 59.6195 29.1477 59.3865 30.0966C59.0854 31.2954 59.0115 31.7557 59.0172 32.5113C59.0172 33.1477 59.0513 33.3863 59.3354 34.7841C59.5115 35.642 59.6877 36.6761 59.7274 37.0852C59.8183 38.0284 59.8183 40.9432 59.7274 41.9147C59.4945 44.3125 59.0399 46.5568 58.3752 48.5341C58.0342 49.5511 58.0172 49.7045 58.2445 50.017C58.4092 50.25 58.8127 50.4318 59.0683 50.3863C59.3183 50.3352 59.5627 50.125 59.7047 49.8295C59.8752 49.4659 60.3638 47.9772 60.5854 47.142C61.7217 42.9147 61.9263 38.7954 61.1933 34.9488C60.8297 33.0397 60.8354 32.4602 61.2502 30.75C61.5456 29.5113 61.6308 28.7727 61.5456 28.0397C61.4263 26.9829 61.0797 26.0568 60.2615 24.5795C58.3638 21.1704 55.4831 18.0795 52.1024 15.8409C50.8468 15.0057 50.307 14.6988 49.0797 14.1079C46.6706 12.9488 44.324 12.3238 41.5911 12.1136C40.8865 12.0625 39.0513 12.0511 38.5797 12.0966Z" fill="#90E0EF"/>
<path d="M48.9205 17.6932C48.5341 17.9602 48.4205 18.4659 48.6648 18.8352C48.7159 18.9204 49.0455 19.1875 49.3978 19.4261C50.3125 20.0568 50.8978 20.5284 52.3069 21.7841C53.6421 22.9716 54.1819 23.5511 54.9262 24.5909C56.1591 26.3125 56.6364 27.267 57.2841 29.267C57.4375 29.7557 57.6534 30.3068 57.7557 30.4943C57.9659 30.8636 58.2159 31.1932 58.25 31.1477C58.2614 31.1307 58.375 30.6988 58.5 30.1818C58.6932 29.375 58.7216 29.1534 58.7216 28.5909C58.7216 27.8295 58.6421 27.5284 58.1534 26.5057C57.6932 25.5341 56.7387 24.0057 56.0796 23.1875C54.7614 21.5454 52.3239 19.3579 50.3239 18.017C49.7216 17.6136 49.625 17.5682 49.3807 17.5682C49.1932 17.5682 49.0512 17.6079 48.9205 17.6932Z" fill="#90E0EF"/>
<path d="M19.0057 22.6307C18.1762 22.75 17.1762 23.2557 16.483 23.9034C15.6591 24.6761 15.1819 25.7216 15.0569 27.0454C14.983 27.8579 14.983 52.1647 15.0569 52.8977C15.1307 53.5909 15.3125 54.3238 15.5398 54.8125C15.9944 55.8011 16.9716 56.6647 18.1535 57.1193C18.591 57.2897 19.3353 57.4772 19.4375 57.4432C19.466 57.4318 19.3466 57.2216 19.1705 56.9716C18.5171 56.0341 18.25 55.3238 18.3523 54.7784C18.4773 54.1136 18.8921 53.5284 19.4148 53.2727C19.6705 53.1477 19.8353 53.1079 20.2273 53.0909C21.3921 53.0341 21.841 53.4091 22.7216 55.1704C22.9432 55.6136 23.1364 55.9772 23.1478 55.9772C23.1535 55.9772 23.2785 55.8295 23.4205 55.6477C23.7614 55.2159 24.0057 54.7727 24.1705 54.2954C24.4773 53.3863 24.4603 54.1363 24.4603 39.9545C24.4603 27.8522 24.4546 26.767 24.3637 26.375C24.1648 25.4886 23.841 24.8011 23.375 24.2784L23.1421 24.0227L22.7103 24.8693C22.0285 26.2045 21.625 26.6591 20.9432 26.8579C19.8637 27.1704 18.7387 26.5454 18.4035 25.4488C18.1989 24.7897 18.3353 24.3011 19 23.2841C19.3694 22.7159 19.4489 22.5682 19.3921 22.5738C19.3694 22.5795 19.1932 22.6022 19.0057 22.6307ZM20.4262 29.9829C21.5341 30.3522 22.3523 31.1534 22.7728 32.2727C22.9603 32.7784 23.0114 33.767 22.875 34.3522C22.4716 36.0568 20.8125 37.2784 19.0569 37.1534C17.9773 37.0795 17.0057 36.5454 16.3466 35.6818C15.5057 34.5738 15.3864 33.1932 16.0114 31.8636C16.5171 30.7954 17.591 30.0057 18.7785 29.8182C19.1989 29.7557 19.983 29.8295 20.4262 29.9829ZM20.483 40.2102C21.0739 40.4659 21.4546 40.8807 21.6705 41.5113C21.7785 41.8409 21.7841 42.0057 21.8069 44.9261C21.8296 48.2329 21.8012 48.6818 21.5569 49.2102C21.1819 50.0454 20.233 50.5341 19.3637 50.3579C18.8012 50.2386 18.2785 49.8579 17.9773 49.3522C17.6932 48.8693 17.6705 48.5909 17.6705 45.2386C17.6705 41.9375 17.6932 41.6647 17.9546 41.1477C18.1932 40.6818 18.7273 40.2557 19.2444 40.125C19.5455 40.0511 20.2103 40.0966 20.483 40.2102Z" fill="#90E0EF"/>
<path d="M18.8354 30.5227C17.3467 30.7613 16.2786 32.0284 16.2956 33.5341C16.307 34.5852 16.8354 35.5113 17.7558 36.0852C18.3752 36.4773 19.3979 36.6079 20.1195 36.3977C21.2615 36.0625 22.1138 35.0795 22.2842 33.8977C22.4433 32.7898 21.9206 31.6193 20.9888 31.0057C20.3808 30.6023 19.5229 30.4091 18.8354 30.5227Z" fill="#FC8211"/>
<path d="M19.4035 40.8579C19.1195 40.9318 18.8979 41.0682 18.6535 41.3352C18.2388 41.7841 18.2388 41.7841 18.2388 45.2386C18.2388 48.6364 18.2388 48.6591 18.6138 49.0909C19.2615 49.8523 20.5058 49.7557 20.9945 48.9091C21.2388 48.4829 21.2615 48.1875 21.2388 45.0114L21.2217 42.0284L21.0854 41.7273C20.7899 41.0739 20.0626 40.6989 19.4035 40.8579Z" fill="#FC8211"/>
<path d="M62.2045 31.1818C62.142 31.2727 62 32.0739 61.9602 32.5114C61.9148 33.017 61.9829 33.6648 62.2216 34.9261C63.1307 39.7898 62.5227 45.3579 60.5284 50.4091C59.1989 53.7727 57.0682 57.0454 54.6023 59.5C50.5852 63.5057 45.5114 65.5795 39.7216 65.5795C35.4204 65.5795 31.8693 64.5114 28.2954 62.1364C27.1023 61.3466 26.3182 60.7102 25.3636 59.7614C23.9773 58.375 23.2045 57.3011 22.2727 55.4716C21.9602 54.8579 21.625 54.2557 21.5341 54.1477C21.2898 53.8523 20.8466 53.6477 20.4659 53.6477C20.0284 53.6477 19.75 53.7443 19.4545 54.0057C18.9829 54.4204 18.8125 55.0057 19.0057 55.5795C19.1534 56.0284 20.4432 57.8693 21.4716 59.1023C22.2614 60.0511 24.2329 62.0057 25.0568 62.6591C28.6023 65.4659 32.3977 67.0511 36.9318 67.6023C38.1023 67.75 41.1648 67.75 42.3295 67.6079C45.3466 67.2443 47.7727 66.517 50.2557 65.2443C52.4659 64.1136 54.1136 62.8977 55.9943 61.0114C57.4375 59.5682 58.2614 58.5511 59.4602 56.7443C60.6136 55.0057 61.5909 53.1591 62.2898 51.4034C62.5966 50.6364 63.3409 48.4716 63.4602 47.9886C63.5227 47.7614 63.5341 47.75 63.7784 47.7273C64.4432 47.6477 64.9545 46.8182 64.9602 45.8068C64.9602 45.4204 64.9375 45.2614 64.8295 45.0227C64.6989 44.7216 64.4716 44.5 64.2898 44.5C64.2273 44.5 64.2045 44.4659 64.2273 44.3977C64.2841 44.2159 64.4886 42.7102 64.5739 41.8693C64.9318 38.3693 64.5227 34.8693 63.5454 33.0227C63.0909 32.1704 62.2784 31.0568 62.2045 31.1818Z" fill="#90E0EF"/>
</g>
<defs>
<clipPath id="clip0_38_1010">
<rect width="50" height="55.7955" fill="white" transform="translate(15 12)"/>
</clipPath>
</defs>
</svg>
