<svg width="80" height="80" viewBox="0 0 80 80" fill="none" xmlns="http://www.w3.org/2000/svg">
<circle cx="40" cy="40" r="40" fill="#03045E"/>
<path d="M43.4415 51.8284L40 54.9756L36.5585 51.8284C38.6244 50.544 41.3756 50.544 43.4415 51.8284ZM16.495 33.4811C29.6962 22.173 50.3038 22.173 63.505 33.4811L59.9898 36.6957C48.7665 27.0717 31.2365 27.0719 20.0102 36.6958L16.495 33.4811Z" stroke="#90E0EF" stroke-width="2"/>
<path d="M47.5266 39.4177C49.6131 40.2202 51.5326 41.3421 53.2068 42.7319L49.8107 45.8854C48.5631 44.8656 47.1442 44.0445 45.611 43.4548C43.7824 42.7515 41.8247 42.3902 39.8492 42.3902C37.8738 42.3902 35.9161 42.7515 34.0874 43.4548C32.5543 44.0445 31.1354 44.8656 29.8878 45.8854L26.4917 42.7319C28.1659 41.3421 30.0854 40.2202 32.1719 39.4177C34.604 38.4822 37.2129 38 39.8492 38C42.4855 38 45.0945 38.4822 47.5266 39.4177Z" stroke="#FC8211" stroke-width="2"/>
</svg>
