<svg width="80" height="80" viewBox="0 0 80 80" fill="none" xmlns="http://www.w3.org/2000/svg">
<circle cx="40" cy="40" r="40" fill="#03045E"/>
<path d="M39.077 29.8122L40 32.0265L40.923 29.8122C42.5564 25.8937 46.9014 23 52.1094 23C58.8028 23 64 27.7371 64 33.316C64 36.1245 62.5847 39.1986 60.2895 42.3047C58.0088 45.3911 54.9465 48.3924 51.8509 51.0339C48.7603 53.6712 45.6652 55.9258 43.3402 57.5223C42.1786 58.3199 41.2113 58.9518 40.5357 59.3836C40.3288 59.5158 40.1493 59.6292 40 59.7228C39.8507 59.6292 39.6712 59.5158 39.4643 59.3836C38.7887 58.9518 37.8214 58.3199 36.6598 57.5222C34.3348 55.9257 31.2397 53.6711 28.1491 51.0338C25.0535 48.3923 21.9912 45.391 19.7105 42.3045C17.4153 39.1985 16 36.1244 16 33.316C16 27.7371 21.1972 23 27.8906 23C33.0986 23 37.4436 25.8937 39.077 29.8122Z" stroke="#90E0EF" stroke-width="2"/>
<path d="M26.078 48.24C25.7099 47.8503 25.3505 47.4538 25 47.0508H30.1919L32.2211 42.2898C32.4417 41.7722 33.2516 41.7882 33.4474 42.314L36.4454 50.3659L41.3129 37.7867C41.5246 37.2395 42.3829 37.2643 42.5563 37.8225L45.4226 47.0508H55C54.6495 47.4538 54.2901 47.8503 53.922 48.24H44.929C44.7869 48.24 44.6487 48.1978 44.5354 48.1197C44.4221 48.0416 44.3398 47.9319 44.3011 47.8073L41.8602 39.9488L37.049 52.3826C36.8429 52.9152 36.0146 52.9107 35.8155 52.376L32.7881 44.2448L31.247 47.8607C31.1993 47.9724 31.1158 48.0684 31.0072 48.1361C30.8986 48.2038 30.7701 48.24 30.6386 48.24H26.078Z" fill="#FC8211"/>
</svg>
