<svg width="80" height="80" viewBox="0 0 80 80" fill="none" xmlns="http://www.w3.org/2000/svg">
<circle cx="40" cy="40" r="40" fill="#03045E"/>
<path d="M50.3642 13.2063C50.6176 12.5513 51.3554 12.2232 51.9991 12.5041C58.4896 15.3363 63.7833 20.3814 66.9206 26.7605C70.2453 33.5209 70.9048 41.2846 68.768 48.5089C66.6313 55.7332 61.8546 61.8891 55.3875 65.7532C48.9203 69.6173 41.236 70.9068 33.8617 69.3653C26.4875 67.8239 19.9631 63.5643 15.5852 57.4333C11.2074 51.3022 9.29649 43.7484 10.2324 36.2731C11.1683 28.7978 14.8824 21.9483 20.6367 17.0858C26.0665 12.4974 32.9378 9.99521 40.0194 9.99998C40.7217 10.0005 41.2662 10.5966 41.236 11.2983V11.2983C41.2058 11.9999 40.6123 12.5411 39.91 12.5434C33.4668 12.5644 27.2202 14.8522 22.2783 19.0283C17.0118 23.4787 13.6125 29.7475 12.756 36.5891C11.8994 43.4306 13.6483 50.344 17.655 55.9553C21.6618 61.5666 27.633 65.4651 34.3821 66.8758C41.1312 68.2866 48.1641 67.1064 54.083 63.5699C60.0019 60.0334 64.3735 54.3994 66.3292 47.7875C68.2848 41.1757 67.6812 34.0701 64.6383 27.8829C61.7829 22.0769 56.9758 17.4785 51.0805 14.8784C50.4379 14.595 50.1109 13.8613 50.3642 13.2063V13.2063Z" fill="#90E0EF"/>
<path d="M35.7654 42.3827L27.0741 37.4938L56 25L43.642 37.7654L52.4691 42.6543L23 55.2839L35.7654 42.3827Z" fill="#FC8211"/>
</svg>
