<svg width="40" height="37" viewBox="0 0 40 37" fill="none" xmlns="http://www.w3.org/2000/svg">
<path d="M1.6 21.0025H8C8.8825 21.0025 9.60001 20.3529 9.60001 19.554V18.8298H20.1134C20.4709 20.0756 21.7134 21.0025 23.1998 21.0025C24.9645 21.0025 26.3998 19.7031 26.3998 18.1056C26.3998 16.5081 24.9645 15.2087 23.1998 15.2087C21.7134 15.2087 20.4709 16.1356 20.1134 17.3814H9.60001V16.6571C9.60001 15.8582 8.8825 15.2087 8 15.2087H1.6C0.717504 15.2087 0 15.8582 0 16.6571V19.554C0 20.3529 0.717504 21.0025 1.6 21.0025ZM23.2 16.6571C24.0825 16.6571 24.8 17.3067 24.8 18.1056C24.8 18.9045 24.0825 19.554 23.2 19.554C22.3175 19.554 21.6 18.9045 21.6 18.1056C21.6 17.3067 22.3175 16.6571 23.2 16.6571ZM1.6 16.6571H8L8.00072 18.1027L8 18.1056L8.00072 18.1085V19.5541H1.59998L1.6 16.6571Z" fill="#FC8211"/>
<path d="M23.2 13.7603C23.6415 13.7603 24 13.4356 24 13.036V0.724224C24 0.32461 23.6415 0 23.2 0C22.7586 0 22.4 0.32461 22.4 0.724224V13.036C22.4 13.4356 22.7586 13.7603 23.2 13.7603Z" fill="#FC8211"/>
<path d="M24 35.487V23.1752C24 22.7756 23.6415 22.4509 23.2 22.4509C22.7586 22.4509 22.4 22.7756 22.4 23.1752V35.487C22.4 35.8866 22.7586 36.2112 23.2 36.2112C23.6415 36.2112 24 35.8866 24 35.487Z" fill="#FC8211"/>
<path d="M39.2 17.3814H28.8C28.3586 17.3814 28 17.7061 28 18.1059C28 18.5057 28.3586 18.8304 28.8 18.8304H39.2C39.6414 18.8304 40 18.5057 40 18.1059C40 17.7061 39.6414 17.3814 39.2 17.3814Z" fill="#FC8211"/>
<path d="M31.1598 11.6246C31.3759 11.6246 31.5759 11.5522 31.7276 11.4144C31.8798 11.2766 31.9598 11.0954 31.9598 10.9001C31.9598 10.7044 31.8798 10.5233 31.7276 10.3858C31.4237 10.1105 30.8955 10.1176 30.5915 10.3858C30.2794 10.6685 30.2794 11.132 30.5915 11.4147C30.7437 11.5522 30.9437 11.6246 31.1598 11.6246Z" fill="#FC8211"/>
<path d="M27.2 15.2087C27.4161 15.2087 27.6161 15.1363 27.7679 14.9986L29.464 13.456C29.7761 13.1809 29.7761 12.7172 29.464 12.435C29.16 12.1598 28.6318 12.1598 28.3279 12.435L26.6318 13.9704C26.3196 14.253 26.3196 14.7163 26.6318 14.9989C26.7839 15.1363 26.984 15.2087 27.2 15.2087Z" fill="#FC8211"/>
<path d="M18.6341 14.9968C18.7902 15.1378 18.9952 15.2089 19.1998 15.2089C19.4044 15.2089 19.6094 15.1378 19.7655 14.9968C20.0784 14.7136 20.0784 14.2558 19.7655 13.9729L15.7655 10.3518C15.4527 10.0686 14.9469 10.0686 14.6345 10.3518C14.3216 10.635 14.3216 11.0928 14.6345 11.3757L18.6341 14.9968Z" fill="#FC8211"/>
<path d="M18.5838 23.3051L19.7117 22.2841C19.8638 22.1463 19.9517 21.9653 19.9517 21.77C19.9517 21.5744 19.8638 21.3934 19.7117 21.2631C19.4156 20.9879 18.8877 20.9879 18.5838 21.2631L17.4559 22.2841C17.3038 22.4218 17.2159 22.6029 17.2159 22.7982C17.2159 22.9938 17.3038 23.1748 17.4559 23.3051C17.6081 23.4428 17.8081 23.5224 18.0159 23.5224C18.232 23.5224 18.432 23.4428 18.5838 23.3051Z" fill="#FC8211"/>
<path d="M16.32 25.3558C16.6321 25.0731 16.6321 24.6167 16.32 24.3343C16.0161 24.0591 15.4961 24.0591 15.1921 24.3343C14.88 24.617 14.88 25.0734 15.1921 25.3558C15.3443 25.4936 15.5443 25.5661 15.7521 25.5661C15.9678 25.5661 16.1679 25.4936 16.32 25.3558Z" fill="#FC8211"/>
<path d="M27.7157 21.1689C27.4028 20.8856 26.8971 20.8856 26.5846 21.1689C26.2717 21.4521 26.2717 21.9099 26.5846 22.1928L30.635 25.8595C30.79 26.0008 30.995 26.0719 31.1996 26.0719C31.4043 26.0719 31.6093 26.0008 31.7653 25.8598C32.0782 25.5766 32.0782 25.1188 31.7653 24.8359L27.7157 21.1689Z" fill="#FC8211"/>
<path d="M4 17.3814H3.2C2.75858 17.3814 2.4 17.7061 2.4 18.1059C2.4 18.5057 2.75858 18.8304 3.2 18.8304H4C4.44143 18.8304 4.8 18.5057 4.8 18.1059C4.8 17.7061 4.44143 17.3814 4 17.3814Z" fill="#FC8211"/>
</svg>
