<svg width="38" height="40" viewBox="0 0 38 40" fill="none" xmlns="http://www.w3.org/2000/svg">
<path d="M35.473 26.323C35.647 26.1973 35.8163 26.0573 35.9711 25.9025C36.7302 25.1434 37.146 24.1378 37.146 23.0792C37.146 21.3 35.9808 19.7919 34.3756 19.2746C35.0332 18.5398 35.3957 17.6067 35.3957 16.6207C35.3957 14.4162 33.602 12.6178 31.3928 12.6178L20.1327 12.6171C20.2244 12.0516 20.3357 11.4762 20.4568 10.8814C20.8048 9.14099 21.1673 7.3378 20.9498 5.49084C20.7565 3.88094 19.7992 1.76817 18.0877 0.675568C16.9853 -0.0255321 15.7575 -0.185045 14.5344 0.216263C12.7552 0.796302 12.4459 2.79772 12.1704 4.5625C12.0301 5.46664 11.8851 6.3997 11.5613 6.92649L11.4936 7.0715C10.9085 8.72025 9.67586 11.2339 8.40922 12.3798V12.2975L0.485352 12.2982V40H29.8309C30.8992 40 31.9048 39.5795 32.6494 38.8251C33.4085 38.0711 33.829 37.0702 33.829 35.9968C33.829 35.0734 33.51 34.2226 32.9829 33.5407H33.0892C34.1575 33.5407 35.1631 33.1202 35.9124 32.3659C36.6715 31.6068 37.0921 30.6012 37.0921 29.5328C37.0968 28.2186 36.454 27.0535 35.4727 26.3234L35.473 26.323ZM2.03711 13.8405H6.86688V38.4482H2.03711V13.8405ZM34.8195 31.2689C34.3602 31.733 33.746 31.9893 33.0935 31.9893H27.1424C26.7168 31.9893 26.3688 32.3373 26.3688 32.7629C26.3688 33.1884 26.7168 33.5365 27.1424 33.5365H29.8352C31.1888 33.5365 32.2912 34.6389 32.2912 35.9925C32.2912 36.645 32.0349 37.2591 31.5661 37.7282C31.1068 38.1922 30.4927 38.4485 29.8402 38.4485L8.41294 38.4481V14.2419C10.8882 13.038 12.6286 8.48871 12.9285 7.65717C13.378 6.87412 13.5426 5.81997 13.7021 4.79513C13.9196 3.4027 14.1422 1.96677 15.0169 1.68187C15.7952 1.42558 16.5496 1.52236 17.2554 1.97662C18.3528 2.67772 19.2377 4.19558 19.4117 5.67028C19.6002 7.27042 19.2765 8.87565 18.9379 10.5726C18.7592 11.4622 18.5754 12.3855 18.4688 13.2994V13.3429C18.4688 13.3574 18.4641 13.3719 18.4641 13.3864C18.4641 13.3962 18.4688 13.4107 18.4688 13.4201C18.4688 13.4491 18.4736 13.4734 18.4786 13.5024C18.4833 13.5267 18.4884 13.5506 18.4931 13.5749C18.4978 13.5992 18.5076 13.6231 18.5174 13.6522C18.5272 13.6764 18.5366 13.6957 18.5464 13.7199C18.5562 13.7442 18.5707 13.7634 18.5801 13.7877C18.5946 13.8069 18.6044 13.8312 18.6189 13.8504C18.6334 13.8697 18.6479 13.8892 18.6671 13.9084C18.6816 13.9277 18.7008 13.9422 18.7153 13.9617C18.7346 13.981 18.7541 13.9955 18.7733 14.01C18.7926 14.0245 18.8121 14.039 18.8314 14.0535C18.8506 14.068 18.8749 14.0777 18.8941 14.0872C18.9184 14.097 18.9423 14.1115 18.9666 14.1162C18.9909 14.126 19.0101 14.1307 19.0344 14.1354C19.0586 14.1401 19.0876 14.1499 19.1166 14.1546C19.1264 14.1546 19.1359 14.1593 19.1504 14.1593H19.1939C19.2084 14.1593 19.2229 14.1641 19.2374 14.1641H31.3867C32.7404 14.1641 33.8427 15.2665 33.8427 16.6201C33.8427 17.2726 33.5864 17.8915 33.1177 18.3558C32.6537 18.8198 32.0396 19.0714 31.387 19.0714H27.1376C26.712 19.0714 26.364 19.4194 26.364 19.845V19.8497V19.8544C26.364 20.28 26.712 20.628 27.1376 20.628H33.1419C34.4956 20.628 35.598 21.7305 35.598 23.084C35.598 23.7319 35.3417 24.3459 34.8729 24.8197C34.4136 25.2837 33.7995 25.54 33.147 25.54H27.1423C26.7167 25.54 26.3687 25.8881 26.3687 26.3136C26.3687 26.7392 26.7167 27.0872 27.1423 27.0872H33.0937C34.4474 27.0872 35.5498 28.1897 35.5498 29.5433C35.5494 30.186 35.2931 30.8002 34.8193 31.2692L34.8195 31.2689Z" fill="#FC8211"/>
</svg>
