<svg width="40" height="40" viewBox="0 0 40 40" fill="none" xmlns="http://www.w3.org/2000/svg">
<mask id="path-1-inside-1_36_608" fill="white">
<path fill-rule="evenodd" clip-rule="evenodd" d="M21 39.9754C31.5811 39.4544 40 30.7104 40 20C40 8.9543 31.0457 0 20 0C8.9543 0 0 8.9543 0 20C0 25.5228 2.23858 30.5228 5.85786 34.1421L0 40H20H21V39.9754Z"/>
</mask>
<path d="M21 39.9754L20.9016 37.9779L19 38.0715V39.9754H21ZM5.85786 34.1421L7.27208 35.5563L8.68629 34.1421L7.27208 32.7279L5.85786 34.1421ZM0 40L-1.41421 38.5858L-4.82843 42H0V40ZM21 40V42H23V40H21ZM38 20C38 29.6387 30.423 37.509 20.9016 37.9779L21.0984 41.973C32.7392 41.3998 42 31.782 42 20H38ZM20 2C29.9411 2 38 10.0589 38 20H42C42 7.84974 32.1503 -2 20 -2V2ZM2 20C2 10.0589 10.0589 2 20 2V-2C7.84974 -2 -2 7.84974 -2 20H2ZM7.27208 32.7279C4.01253 29.4684 2 24.9711 2 20H-2C-2 26.0746 0.464624 31.5773 4.44365 35.5563L7.27208 32.7279ZM1.41421 41.4142L7.27208 35.5563L4.44365 32.7279L-1.41421 38.5858L1.41421 41.4142ZM20 38H0V42H20V38ZM21 38H20V42H21V38ZM19 39.9754V40H23V39.9754H19Z" fill="#FC8211" mask="url(#path-1-inside-1_36_608)"/>
<rect x="13" y="16" width="3" height="9" rx="1.5" fill="#FC8211"/>
<rect x="8" y="19" width="3" height="3" rx="1.5" fill="#FC8211"/>
<rect x="28" y="19" width="3" height="3" rx="1.5" fill="#FC8211"/>
<rect x="23" y="16" width="3" height="9" rx="1.5" fill="#FC8211"/>
<rect x="18" y="12" width="3" height="15" rx="1.5" fill="#FC8211"/>
</svg>
